<?xml version="1.0" encoding="UTF-8"?><svg id="Layer_2" xmlns="http://www.w3.org/2000/svg" viewBox="0 0 92.3 92.3"><defs><style>.cls-1{fill:#e4801d;stroke-width:0px;}.cls-2{fill:#fff;stroke:#656565;stroke-miterlimit:10;stroke-width:.3px;}</style></defs><g id="Layer_2-2"><circle class="cls-2" cx="46.15" cy="46.15" r="46"/><path class="cls-1" d="M46.35,26.15c.78.13,1.57.22,2.34.4,3.47.83,6.28,2.69,8.43,5.54.05.07.1.15.18.26-1.31.68-2.6,1.34-3.91,2.02-.23-.25-.45-.5-.68-.74-.33-.34-.67-.38-.96-.12-.28.26-.27.62.04.96.14.15.28.31.45.49-1.08.56-2.12,1.1-3.18,1.64-.87-.71-1.84-1.18-2.95-1.33-3.36-.47-6.37,2.11-6.41,5.5-.03,2.91,2.17,5.4,5.02,5.68,2.97.29,5.62-1.67,6.15-4.58.1-.55.03-1.14.06-1.71,0-.13.06-.32.15-.37.96-.52,1.93-1.01,2.9-1.51.37.57.62.72.96.57.35-.14.41-.41.25-1.2,1.28-.66,2.57-1.33,3.88-2.01.4,1,.67,2.02.8,3.06.63,5.08-.88,9.42-4.61,12.92-2.39,2.25-5.26,3.52-8.54,3.8-6.55.56-12.35-2.93-14.94-8.96-.59-1.37-.94-2.81-1.07-4.3,0-.11-.05-.23-.07-.34,0-.7,0-1.41,0-2.11.05-.31.1-.61.14-.92.83-6.14,5.51-11.15,11.57-12.36.62-.12,1.25-.21,1.88-.31.7,0,1.41,0,2.11,0ZM55.65,41.22c0-.16,0-.26,0-.37-.01-.4-.25-.66-.61-.66-.36,0-.61.24-.63.64-.03.4-.06.8-.07,1.2-.01.38.21.65.55.68.36.04.64-.19.69-.58.04-.32.06-.65.08-.91ZM36.33,39.7c.03-.42-.21-.71-.57-.73-.36-.02-.63.24-.66.66-.03.4-.07.8-.07,1.2,0,.38.25.62.6.63.34,0,.61-.23.64-.6.03-.39.04-.78.06-1.16ZM44.93,51.15c.17,0,.29,0,.41,0,.37-.02.62-.27.62-.62,0-.33-.23-.59-.58-.62-.43-.04-.85-.07-1.28-.08-.35,0-.61.23-.64.55-.03.34.19.63.55.68.32.04.65.06.91.09ZM49,31.13c-.21.2-.43.34-.55.54-.15.25-.04.54.2.68.42.25.87.47,1.32.65.27.11.54.02.71-.25.15-.25.17-.56-.06-.71-.49-.33-1.03-.58-1.62-.91ZM36.5,37.77c.09-.06.3-.15.39-.31.23-.39.43-.8.61-1.22.14-.32,0-.66-.3-.79-.32-.14-.61-.07-.78.22-.24.41-.45.85-.63,1.29-.15.4.18.81.7.8ZM40.43,48.55c-.16.15-.42.29-.48.49-.06.19.02.55.16.64.44.29.93.52,1.42.71.3.11.56-.06.68-.37.13-.32.02-.6-.28-.76-.32-.18-.65-.33-.98-.48-.14-.07-.28-.12-.53-.22ZM45.74,30.53c-.17,0-.26,0-.35,0-.41,0-.67.24-.68.59-.01.36.24.62.62.65.4.03.8.06,1.2.08.36,0,.64-.24.66-.57.03-.33-.22-.62-.57-.66-.32-.04-.64-.06-.88-.08ZM41.72,32.51c.43-.16.97-.32,1.47-.56.27-.13.34-.48.17-.72-.13-.18-.43-.38-.61-.35-.49.09-.97.28-1.44.48-.28.12-.38.38-.3.69.08.3.3.44.71.46ZM40.11,33.12c-.13-.17-.23-.4-.4-.48-.17-.08-.47-.09-.61.01-.39.27-.75.6-1.09.94-.24.24-.23.54,0,.81.2.24.58.29.84.08.35-.28.69-.59,1.02-.9.1-.1.14-.26.24-.46ZM55.05,44.51c-.23-.22-.38-.44-.59-.54-.25-.13-.53-.03-.68.23-.24.42-.45.85-.64,1.29-.11.26-.02.52.21.69.23.18.56.22.71,0,.35-.5.63-1.05.98-1.66ZM36.13,42.73c-.55.01-.85.38-.74.79.11.41.25.82.41,1.22.15.37.48.52.81.4.33-.12.47-.45.35-.84-.12-.37-.22-.75-.39-1.1-.11-.21-.34-.37-.44-.47ZM37.62,46.05c-.19.15-.43.26-.49.42-.07.19-.06.48.05.64.23.35.54.66.83.97.28.29.64.31.9.06.25-.23.26-.61,0-.91-.25-.3-.5-.6-.77-.87-.13-.13-.31-.2-.53-.33ZM51.13,49.15c.18-.03.26-.01.3-.05.45-.39.91-.76,1.31-1.19.19-.2.07-.51-.15-.69-.23-.2-.51-.23-.75-.04-.37.29-.74.58-1.04.93-.13.15-.17.47-.1.67.06.17.32.28.43.37ZM47.98,50.83c.41-.15.92-.31,1.4-.53.3-.14.35-.45.24-.74-.12-.31-.38-.44-.69-.36-.46.13-.92.28-1.36.46-.28.12-.39.38-.31.68.08.32.31.46.73.49Z"/><path class="cls-1" d="M54.48,66.15c-.25-.22-.49-.44-.35-.82.1-.27.3-.42.59-.43.23,0,.46,0,.76,0-.35-.58-.66-1.1-.97-1.62-.25-.42-.49-.86-.77-1.26-.08-.12-.28-.23-.42-.23-5.32-.01-10.64-.01-15.97,0-.13,0-.32.07-.38.17-.58.94-1.14,1.89-1.71,2.84-.01.02,0,.05,0,.09.46.1,1.07-.19,1.3.49.12.36-.13.58-.36.79h-3.59c-.12-.16-.3-.3-.36-.48-.14-.4.2-.82.68-.75.65.08.95-.21,1.26-.73,1.61-2.75,3.27-5.47,4.91-8.2.07-.12.15-.24.23-.38.39.14.77.28,1.19.43-.26.45-.52.88-.79,1.34h11.24c-.26-.44-.51-.87-.78-1.34.4-.15.78-.29,1.18-.44.24.39.47.77.69,1.15,1.57,2.61,3.13,5.22,4.69,7.83.15.24.3.36.58.33.15-.02.31,0,.47,0,.31,0,.53.13.63.43.1.3,0,.53-.24.72-.04.03-.07.07-.11.1h-3.59ZM37.84,60.5h15c-.33-.55-.65-1.06-.94-1.58-.12-.21-.26-.28-.49-.27-1.95,0-3.9,0-5.85,0-2.09,0-4.19,0-6.28,0-.14,0-.35.06-.42.17-.35.53-.66,1.08-1.02,1.67Z"/><path class="cls-1" d="M65.65,32.4c-.2.16-.38.34-.6.46-1.11.59-2.23,1.17-3.35,1.75-1,.52-1.56.38-2.19-.58-4.41,2.28-8.83,4.55-13.33,6.88.38.1.67.17.95.24.41.11.63.42.54.77-.09.35-.43.54-.83.45-.82-.19-1.64-.39-2.46-.59-.53-.13-.71-.49-.5-1.01.32-.8.64-1.59.97-2.38.19-.45.52-.63.88-.47.34.15.45.49.28.92-.11.29-.23.57-.37.94,4.49-2.32,8.9-4.59,13.32-6.87-.05-.12-.09-.22-.13-.31-.38-.8-.17-1.46.61-1.87,1.23-.65,2.47-1.28,3.7-1.93.28-.15.56-.24.83-.01.29.24.26.54.16.85-.14.45-.26.9-.41,1.4.41.15.81.27,1.2.44.26.12.49.3.74.45v.47ZM60.76,33.69c.9-.47,1.76-.92,2.59-1.35-.34-.22-.79-.35-.94-.64-.15-.29.01-.73.04-1.13-.85.44-1.71.89-2.59,1.35.31.62.59,1.18.89,1.78Z"/><path class="cls-1" d="M47.79,37.25c-.24.12-.43.22-.54.28-.43-.3-.78-.64-1.19-.81-.87-.35-1.87.07-2.26.94-.42.93-.82,1.89-1.16,2.85-.38,1.09.22,2.16,1.35,2.44.84.22,1.69.42,2.54.61,1.57.35,2.74-.91,2.28-2.45-.01-.04-.02-.07-.04-.15.29-.15.58-.3.89-.46.28,1.81-1,3.77-2.85,4.44-1.94.7-4.16-.09-5.22-1.88-1.07-1.81-.73-4.08.82-5.48,1.49-1.35,3.82-1.52,5.38-.35Z"/></g></svg>