<?xml version="1.0" encoding="UTF-8"?><svg id="Layer_2" xmlns="http://www.w3.org/2000/svg" viewBox="0 0 92.3 92.3"><defs><style>.cls-1{fill:#e4801d;stroke-width:0px;}.cls-2{fill:#fff;stroke:#656565;stroke-miterlimit:10;stroke-width:.3px;}</style></defs><g id="Layer_2-2"><circle class="cls-2" cx="46.15" cy="46.15" r="46"/><path class="cls-1" d="M26.15,39.01h34.25v7.42s-.04.03-.06.03c-1-.45-1.94-.3-2.92.12-2.15.9-4.33,1.72-6.48,2.62-.46.19-.9.53-1.25.89-.25.26-.47.37-.82.36-7.57,0-15.14,0-22.72,0v-11.43ZM37.52,46.15c1.4,0,2.8,0,4.2,0,.92,0,1.56-.58,1.57-1.41.01-.84-.64-1.45-1.57-1.45-2.75,0-5.5,0-8.26,0-.95,0-1.59.58-1.59,1.43,0,.84.65,1.43,1.6,1.43,1.35,0,2.71,0,4.06,0ZM49.01,44.7c0-.78-.66-1.41-1.43-1.41-.8,0-1.44.67-1.42,1.47.02.77.68,1.4,1.46,1.39.78-.01,1.41-.67,1.4-1.44ZM54.72,44.72c0-.78-.64-1.42-1.42-1.42-.8,0-1.45.65-1.43,1.45.01.77.67,1.41,1.44,1.4.78,0,1.41-.65,1.41-1.43Z"/><path class="cls-1" d="M58.03,26.15c.45.21.95.37,1.35.66.67.48,1.04,1.2,1.05,2.03.03,2.39,0,4.79,0,7.18,0,.03-.02.05-.05.13H26.15c0-2.56,0-5.12,0-7.68.18-.37.32-.76.53-1.1.41-.66,1.08-.97,1.79-1.22,9.85,0,19.7,0,29.55,0ZM37.6,30.44c-1.37,0-2.74,0-4.11,0-.98,0-1.63.58-1.63,1.44,0,.84.66,1.42,1.61,1.42,2.74,0,5.47,0,8.21,0,.95,0,1.6-.58,1.61-1.42,0-.84-.64-1.44-1.59-1.44-1.37,0-2.74,0-4.11,0ZM49.01,31.87c0-.78-.63-1.43-1.41-1.44-.78-.01-1.43.62-1.45,1.39-.02.79.64,1.46,1.43,1.46.78,0,1.42-.64,1.43-1.42ZM54.72,31.87c0-.78-.63-1.43-1.41-1.43-.78,0-1.43.62-1.44,1.4-.02.79.64,1.46,1.43,1.46.78,0,1.42-.64,1.42-1.42Z"/><path class="cls-1" d="M26.15,53.29h22.86c0,.18,0,.34,0,.5.02,1.59,0,3.18.08,4.77.08,1.56.58,3.03,1.32,4.41.05.09.08.18.14.32h-.57c-6.87,0-13.74,0-20.62,0-1.72,0-2.6-.64-3.15-2.26,0-.02-.04-.04-.06-.06,0-2.56,0-5.12,0-7.68ZM37.58,56.15c-1.38,0-2.77,0-4.15,0-.92,0-1.55.59-1.56,1.42,0,.83.64,1.44,1.54,1.44,2.78,0,5.56,0,8.35,0,.9,0,1.55-.61,1.54-1.44,0-.83-.65-1.41-1.56-1.42-1.38,0-2.77,0-4.15,0Z"/><path class="cls-1" d="M58.83,66.15c-1.17-.35-2.3-.77-3.29-1.52-2.36-1.78-3.6-4.14-3.66-7.1-.04-1.77,0-3.54-.01-5.31,0-.29.1-.41.35-.51,2.17-.86,4.33-1.73,6.49-2.58.18-.07.44-.06.62,0,2.28.9,4.55,1.81,6.82,2.72v6.43c-.03.11-.06.23-.08.34-.54,3.36-2.38,5.71-5.5,7.05-.44.19-.92.31-1.38.47h-.36ZM58.23,57.03c-.12-.16-.21-.32-.33-.44-.6-.59-1.47-.59-2.04-.03-.57.57-.57,1.43,0,2.04.42.44.86.87,1.29,1.29.74.74,1.52.74,2.26.01.88-.87,1.75-1.74,2.62-2.62.69-.69.73-1.57.11-2.17-.6-.58-1.46-.53-2.13.14-.57.56-1.13,1.13-1.78,1.77Z"/></g></svg>