<?xml version="1.0" encoding="UTF-8"?><svg id="Layer_2" xmlns="http://www.w3.org/2000/svg" viewBox="0 0 92.3 92.3"><defs><style>.cls-1{fill:#e4801d;stroke-width:0px;}.cls-2{fill:#fff;stroke:#656565;stroke-miterlimit:10;stroke-width:.3px;}</style></defs><g id="Layer_2-2"><circle class="cls-2" cx="46.15" cy="46.15" r="46"/><path class="cls-1" d="M55.86,66.21h-28.55c-.55-.22-.94-.61-1.16-1.16V27.24c.22-.55.61-.94,1.16-1.16h28.55c.86.36,1.18,1,1.17,1.94-.04,2.54-.02,5.08,0,7.62,0,.4-.1.68-.39.97-4.99,4.97-9.96,9.94-14.93,14.93-.32.32-.58.74-.74,1.16-.77,2.08-1.5,4.17-2.23,6.25-.12.33-.22.68-.24,1.03-.13,2.22,1.95,3.69,4.15,2.92,2.07-.73,4.15-1.45,6.21-2.21.46-.17.92-.47,1.27-.81,2.17-2.13,4.3-4.28,6.45-6.43.12-.12.24-.22.43-.4v.64c0,3.53-.02,7.07.01,10.6,0,.93-.31,1.58-1.17,1.94ZM41.61,33.8c-2.56,0-5.11,0-7.67,0-.94,0-1.62.67-1.61,1.55,0,.86.69,1.53,1.59,1.53,5.11,0,10.22,0,15.33,0,.3,0,.64-.11.9-.27.58-.35.82-1.05.63-1.68-.21-.69-.77-1.12-1.51-1.12-2.56,0-5.11,0-7.67,0ZM38.47,46.15c1.48,0,2.96,0,4.44,0,1.06,0,1.77-.63,1.76-1.56,0-.91-.71-1.53-1.74-1.53-2.96,0-5.91,0-8.87,0-1.03,0-1.73.62-1.73,1.53,0,.91.7,1.55,1.71,1.55,1.48,0,2.96,0,4.44,0Z"/><path class="cls-1" d="M41.58,60.17c.65-1.83,1.29-3.54,1.87-5.28.28-.83.71-1.5,1.33-2.12,5.68-5.68,11.34-11.38,17.01-17.07.11-.11.21-.24.28-.33,1.38,1.38,2.72,2.73,4.08,4.09-.06.06-.16.18-.27.29-5.88,5.89-11.76,11.78-17.64,17.66-.22.22-.51.39-.79.51-1.91.75-3.83,1.47-5.86,2.24Z"/></g></svg>