<?xml version="1.0" encoding="UTF-8"?><svg id="Layer_2" xmlns="http://www.w3.org/2000/svg" viewBox="0 0 92.3 92.3"><defs><style>.cls-1{fill:#e4801d;stroke-width:0px;}.cls-2{fill:#fff;stroke:#656565;stroke-miterlimit:10;stroke-width:.3px;}</style></defs><g id="Layer_2-2"><circle class="cls-2" cx="46.15" cy="46.15" r="46"/><path class="cls-1" d="M29.15,58.4V26.15c6.83,0,13.67,0,20.5,0,0,1.21,0,2.42,0,3.62,0,.74.39,1.13,1.13,1.13,1.06,0,2.11,0,3.17,0,.15,0,.29,0,.43,0v11.54c-.47.14-.93.2-1.33.41-.45.23-.86.56-1.26.88-.4.32-.85.39-1.35.38.31-.77.05-1.15-.75-1.15-2.36,0-4.72,0-7.08,0-.17,0-.33,0-.5.02-.33.04-.53.24-.56.57-.03.35.12.6.46.7.16.04.33.05.49.05,1.93,0,3.86,0,5.79,0,.14,0,.29,0,.52,0-1.17.74-1.42.96-1.75,1.66-.11.23-.24.29-.47.29-1.39,0-2.78,0-4.17,0-.58,0-.87.23-.87.66,0,.44.29.67.86.67,1.25,0,2.5,0,3.75,0,.13,0,.26.01.41.02-.08.56-.41.9-.8,1.21-.58.45-1.04.99-1.29,1.7-.04.11-.23.21-.36.22-.58.02-1.17,0-1.75.01-.53,0-.82.24-.82.67,0,.43.29.66.83.66.66,0,1.33,0,1.94,0,.3.66.57,1.27.88,1.95-.6,0-1.15,0-1.7,0-.46,0-.92-.01-1.37.03-.37.03-.57.28-.56.65,0,.37.21.59.58.64.18.02.36.01.54.01.84,0,1.69,0,2.58,0-.28,1.43.13,2.58,1.28,3.5-.14.01-.19.02-.25.02-5.43,0-10.86,0-16.29,0-.39,0-.66-.15-.85-.48ZM38.27,53.26c.71-.63,1.43-1.26,2.14-1.9.38-.34.42-.71.15-1.02-.27-.31-.67-.3-1.06.05-.41.36-.82.74-1.25,1.13-.18-.5-.5-.77-1.01-.77-.87,0-1.75,0-2.62,0-.62,0-.98.37-.98.99,0,.87,0,1.75,0,2.62,0,.62.33.97.94.98.9.02,1.8.02,2.7,0,.6-.01.93-.37.95-.98.01-.37.03-.74.04-1.11,0,0,0,.01,0,.01ZM39.47,29.72c.23.78.63,1.35,1.32,1.65.26.11.34.25.34.52-.01,1.43-.02,2.86,0,4.29,0,.35-.09.49-.44.58-1.1.31-1.92.99-2.48,2.05h7.12c-.07-.13-.1-.23-.16-.32-.56-.9-1.36-1.49-2.38-1.76-.2-.05-.35-.1-.35-.37.01-1.53,0-3.06.01-4.58,0-.11.05-.28.12-.31.79-.32,1.27-.91,1.52-1.76.76.21,1.48.41,2.24.62-.5.85-1.01,1.67-1.48,2.52-.12.21-.2.51-.16.74.26,1.36,1.46,2.36,2.82,2.41,1.47.05,2.73-.83,3.08-2.23.07-.28.03-.65-.11-.9-.69-1.24-1.43-2.44-2.15-3.66-.28-.48-.45-.55-1-.41-.67.16-1.31.16-1.96-.11-.3-.13-.64-.21-.96-.24-.32-.03-.5-.14-.67-.42-.73-1.22-2.4-1.47-3.47-.54-.31.27-.51.71-.85.9-.35.2-.84.15-1.24.3-.65.25-1.29.28-1.96.11-.56-.14-.72-.07-1.02.44-.72,1.2-1.45,2.4-2.13,3.62-.14.25-.19.62-.12.9.52,1.97,2.79,2.86,4.53,1.8.71-.43,1.14-1.07,1.37-1.87.18-.62-.27-.99-.51-1.43-.35-.65-.75-1.28-1.12-1.92.76-.21,1.48-.41,2.24-.62ZM38.23,45.57c-.36.32-.64.59-.94.84-.37.31-.68.31-1.03-.03-.41-.39-.81-.8-1.21-1.21-.32-.33-.34-.72-.08-1,.28-.29.68-.27,1.03.06.27.26.51.54.79.82.47-.42.9-.8,1.32-1.18.04.02.07.04.11.05v1.64c.83-.76,1.59-1.42,2.31-2.13.14-.14.19-.48.13-.67-.06-.18-.31-.38-.5-.41-.19-.03-.45.1-.62.24-.44.35-.84.74-1.27,1.14-.19-.46-.45-.76-.94-.76-.93,0-1.86-.01-2.79,0-.51,0-.87.36-.88.87-.02.94-.02,1.89,0,2.83,0,.5.37.87.87.88.94.02,1.89.02,2.83,0,.49,0,.85-.36.88-.83.03-.36,0-.71,0-1.16Z"/><path class="cls-1" d="M63.15,51.82c-.12.28-.21.57-.38.82-.64.97-.72,2-.52,3.11.19,1.09-.22,1.78-1.23,2.22-.09.04-.18.08-.27.11-.96.3-1.68.88-2.14,1.78-.09.18-.22.36-.35.52-.47.59-1.08.84-1.84.7-.09-.02-.19-.04-.28-.07-1.14-.49-2.26-.47-3.43-.03-1.04.39-1.77.06-2.38-.87-.11-.16-.22-.32-.32-.49-.38-.69-.94-1.15-1.68-1.4-.27-.09-.54-.22-.8-.35-.74-.36-1.13-1.11-1.03-1.92.04-.32.08-.63.12-.95.08-.62,0-1.21-.31-1.77-.17-.3-.32-.61-.47-.93-.35-.75-.26-1.58.37-2.1,1.07-.87,1.7-1.92,1.91-3.28.13-.83.81-1.33,1.65-1.41.12-.01.25-.02.37-.02,1.06.05,1.97-.27,2.79-.97.35-.3.83-.54,1.28-.61.38-.06.82.15,1.22.29.19.06.35.22.5.37.74.7,1.64.92,2.64.93,1.36,0,1.94.46,2.19,1.8.2,1.08.69,1.92,1.52,2.63.37.32.58.81.87,1.23v.67ZM54.41,57.65c2.82,0,5.15-2.33,5.15-5.14,0-2.85-2.31-5.18-5.15-5.18-2.84,0-5.17,2.32-5.17,5.16,0,2.84,2.32,5.15,5.17,5.16Z"/><path class="cls-1" d="M50.72,66.15c-.47-.81-.92-1.54-1.32-2.29-.15-.29-.33-.34-.63-.28-.83.16-1.66.3-2.6.46.71-1.52,1.37-2.95,2.09-4.49.26.3.47.53.65.77.26.36.46.76.75,1.1.61.71,1.42,1.03,2.36,1.06.12,0,.24,0,.41,0-.57,1.23-1.13,2.42-1.71,3.68Z"/><path class="cls-1" d="M58.03,65.21c-.4-.94-.78-1.81-1.17-2.71.27-.05.51-.08.73-.14,1.03-.26,1.7-.95,2.18-1.86.26-.5.62-.88,1.24-1.04.53,1.22,1.05,2.44,1.62,3.75-.89-.18-1.71-.32-2.51-.52-.38-.09-.57,0-.76.34-.41.72-.87,1.41-1.34,2.17Z"/><path class="cls-1" d="M51,26.94c.87.88,1.73,1.74,2.59,2.6h-2.59v-2.6Z"/><path class="cls-1" d="M41.76,30.26c-.56,0-.99-.47-.98-1.03.02-.54.47-.98,1-.97.55,0,1.01.47,1,1.02,0,.55-.47.99-1.03.98Z"/><path class="cls-1" d="M35.89,30.7c.4.67.76,1.29,1.16,1.96h-2.32c.39-.65.75-1.27,1.16-1.96Z"/><path class="cls-1" d="M46.51,32.66c.41-.69.77-1.3,1.16-1.96.4.67.76,1.29,1.16,1.96h-2.32Z"/><path class="cls-1" d="M38.27,53.25c-.35.33-.69.68-1.05.99-.29.25-.62.23-.9-.04-.45-.43-.89-.87-1.32-1.32-.27-.29-.27-.68-.02-.93.27-.28.65-.29.96,0,.29.27.55.58.84.89.48-.43.91-.82,1.37-1.23.05.59.09,1.12.13,1.64,0,0,0-.01,0-.01Z"/><path class="cls-1" d="M53.22,53.43c1.11-1.01,2.18-1.98,3.25-2.95.14-.13.28-.27.44-.38.31-.2.62-.17.86.1.24.27.24.58,0,.87-.09.11-.2.2-.3.29-1.22,1.11-2.45,2.22-3.67,3.33-.47.43-.76.42-1.22-.03-.47-.47-.95-.94-1.41-1.41-.36-.37-.39-.78-.1-1.06.3-.29.66-.25,1.02.11.36.36.72.73,1.11,1.13Z"/></g></svg>