<?xml version="1.0" encoding="UTF-8"?><svg id="Layer_2" xmlns="http://www.w3.org/2000/svg" viewBox="0 0 92.3 92.3"><defs><style>.cls-1{fill:#e4801d;stroke-width:0px;}.cls-2{fill:#fff;stroke:#656565;stroke-miterlimit:10;stroke-width:.3px;}</style></defs><g id="Layer_2-2"><circle class="cls-2" cx="46.15" cy="46.15" r="46"/><path class="cls-1" d="M35.97,26.15c.72.15,1.46.25,2.17.47,3.52,1.1,6.05,4.29,6.37,7.97.01.12.05.24.04.36-.12,1.16.38,2.08,1.06,2.96.35.46.66.96.97,1.45.46.74.05,1.62-.81,1.73-.33.04-.67.02-1.01.03-.52.02-.71.19-.71.72,0,1.11,0,2.22,0,3.33,0,.92-.5,1.42-1.43,1.43-.62,0-1.24,0-1.87,0-.82,0-1.43.62-1.43,1.44,0,.69,0,1.38,0,2.1h-9.39c0-.18,0-.33,0-.49.05-2.99-.63-5.81-1.91-8.5-.48-1-.96-2-1.35-3.03-.25-.66-.33-1.38-.49-2.07,0-.38,0-.76,0-1.14.03-.12.06-.23.07-.35.33-3.79,3.18-7.15,6.87-8.08.54-.14,1.1-.22,1.66-.33.41,0,.81,0,1.22,0ZM32.31,30.83c-.89-.01-1.46.87-1.11,1.55.22.43.29.84-.03,1.2-.19.22-.47.39-.74.51-.47.22-.67.56-.61,1.2.04.43.26.68.66.75.79.14,1.11.77.76,1.49-.28.58-.23.79.33,1.34.41.41.62.44,1.19.15.33-.17.66-.24.94.02.22.2.42.45.53.71.24.56.48.72,1.21.68.47-.02.7-.27.87-.76.08-.23.26-.46.46-.62.36-.29.74-.19,1.13.02.49.26.71.15,1.29-.42.32-.32.34-.65.15-1.03-.4-.8-.19-1.29.66-1.59.55-.19.72-.46.7-1.12-.02-.54-.23-.82-.77-.94-.33-.07-.51-.26-.67-.53-.21-.37-.13-.69.05-1.03.27-.52.18-.76-.41-1.33-.34-.33-.64-.41-1.06-.13-.62.41-1.4-.01-1.56-.65-.16-.61-.45-.77-1.12-.75-.54.01-.8.24-.95.81-.16.62-.81.92-1.4.66-.21-.09-.42-.17-.52-.21Z"/><path class="cls-1" d="M53.01,66.15c0-.69,0-1.38,0-2.07,0-.82-.61-1.42-1.43-1.43-.62,0-1.24,0-1.87,0-.91,0-1.43-.53-1.43-1.44,0-.95,0-1.89,0-2.84,0-1.18-.04-1.22-1.19-1.22-.14,0-.27,0-.41,0-.48-.03-.81-.29-1.02-.69-.21-.4-.14-.77.12-1.14.5-.71.94-1.45,1.45-2.15.35-.48.49-1,.51-1.58.03-1.32.24-2.6.77-3.83,1.59-3.65,5.35-5.9,9.2-5.53,4.04.39,7.36,3.37,8.19,7.36.1.46.16.93.24,1.39v1.05c-.02.1-.04.21-.07.31-.25.88-.45,1.78-.77,2.63-.32.86-.78,1.66-1.16,2.49-1.27,2.76-1.87,5.65-1.73,8.69h-9.41ZM51.6,52.68c.02,1.22.56,2.56,1.71,3.63.43.4.65.89.68,1.47.04.72.37,1.22,1.04,1.5.1.04.21.2.21.31.03.39,0,.78.02,1.17.05.85.73,1.51,1.59,1.55.81.04,1.57-.57,1.68-1.39.06-.4.05-.81.04-1.21,0-.26.05-.41.31-.52.52-.22.89-.63.91-1.2.03-.79.4-1.36.92-1.91,1.2-1.27,1.82-2.82,1.58-4.56-.33-2.4-2.65-4.81-5.95-4.52-2.62.23-4.74,2.6-4.74,5.68Z"/><path class="cls-1" d="M60.29,37.74c.01-.24.02-.34.02-.44,0-1.61,0-3.22,0-4.83-.01-1.89-1.37-3.23-3.26-3.24-3.5,0-7,0-10.5,0-.14,0-.27,0-.4,0-.35-.04-.62-.36-.6-.7.01-.34.26-.58.63-.61.07,0,.14,0,.2,0,3.57,0,7.14,0,10.7,0,2.28,0,4.05,1.45,4.48,3.63.07.37.08.75.09,1.13,0,1.49,0,2.97,0,4.46,0,.15,0,.29,0,.56.24-.23.4-.4.57-.56.35-.34.71-.38,1-.1.28.27.25.67-.07,1-.54.55-1.08,1.09-1.63,1.63-.35.35-.63.37-.99.04-.61-.57-1.2-1.17-1.78-1.77-.26-.27-.23-.63,0-.88.25-.26.62-.28.91-.02.21.19.38.4.65.69Z"/><path class="cls-1" d="M32.28,55.12c-.18.2-.34.42-.53.6-.29.27-.66.27-.91.02-.27-.26-.27-.64.02-.94.57-.58,1.14-1.15,1.72-1.72.27-.27.57-.31.86-.04.62.6,1.24,1.21,1.83,1.83.24.26.19.66-.06.88-.25.22-.57.21-.83-.05-.18-.18-.34-.38-.5-.58-.04.02-.07.04-.11.06,0,.11-.02.22-.03.33,0,1.34,0,2.68,0,4.01.01,2.04,1.35,3.36,3.39,3.36,2.47,0,4.95,0,7.42,0,.14,0,.27,0,.4.01.35.04.6.33.58.67-.02.35-.21.58-.57.63-.12.02-.24.01-.36.01-2.5,0-5,0-7.5,0-2.78,0-4.68-1.9-4.69-4.68,0-1.44,0-2.89,0-4.33-.04-.02-.08-.05-.12-.07Z"/><path class="cls-1" d="M36.88,35.08c0,.88-.7,1.56-1.58,1.55-.84,0-1.58-.76-1.56-1.6.02-.86.74-1.57,1.6-1.55.87.02,1.55.72,1.54,1.6Z"/><path class="cls-1" d="M56.15,54.6v3.38c-.23,0-.45.03-.65-.01-.09-.02-.23-.15-.24-.24-.07-1.07-.62-1.84-1.35-2.58-1.19-1.21-1.47-2.7-.86-4.27.61-1.57,1.82-2.42,3.51-2.59,2.28-.22,3.93,1.39,4.26,2.97.31,1.49-.06,2.82-1.11,3.92-.68.71-1.16,1.49-1.21,2.49,0,.21-.1.32-.32.31-.21,0-.43,0-.67,0v-3.38c.15-.01.29-.02.44-.04.37-.04.61-.28.62-.63.01-.34-.22-.66-.57-.67-.78-.03-1.57-.03-2.35,0-.35.02-.55.28-.55.64,0,.36.21.57.56.65.15.03.32.03.49.04Z"/><path class="cls-1" d="M56.5,59.34h.74c0,.41.03.81-.02,1.2-.02.13-.24.31-.37.31-.11,0-.31-.21-.33-.35-.05-.37-.02-.75-.02-1.17Z"/></g></svg>