<?xml version="1.0" encoding="UTF-8"?><svg id="Layer_2" xmlns="http://www.w3.org/2000/svg" viewBox="0 0 92.3 92.3"><defs><style>.cls-1{fill:#e4801d;stroke-width:0px;}.cls-2{fill:#fff;stroke:#656565;stroke-miterlimit:10;stroke-width:.3px;}</style></defs><g id="Layer_1-2"><circle class="cls-2" cx="46.15" cy="46.15" r="46"/><path class="cls-1" d="M46.51,26.15c.81.35,1.13.96,1.08,1.84-.05.79,0,1.58-.01,2.36,0,.87-.62,1.51-1.43,1.51-.81,0-1.42-.64-1.43-1.51,0-.79.03-1.58-.01-2.36-.05-.88.26-1.5,1.08-1.84h.71Z"/><path class="cls-1" d="M26.15,45.79c.35-.82.96-1.13,1.84-1.08.79.05,1.58,0,2.36.01.87,0,1.51.62,1.51,1.43,0,.81-.64,1.42-1.5,1.43-.79,0-1.58-.03-2.36.01-.88.05-1.49-.27-1.84-1.08v-.71Z"/><path class="cls-1" d="M66.15,46.51c-.35.81-.96,1.13-1.84,1.08-.79-.05-1.58,0-2.36-.01-.87,0-1.51-.62-1.51-1.43,0-.81.63-1.42,1.51-1.43.79,0,1.58.03,2.36-.01.88-.05,1.49.27,1.84,1.08v.71Z"/><path class="cls-1" d="M45.79,66.15c-.81-.35-1.13-.96-1.08-1.84.05-.79,0-1.58.01-2.36,0-.87.61-1.51,1.43-1.51.81,0,1.42.64,1.43,1.51,0,.79-.03,1.58.01,2.36.05.88-.27,1.49-1.08,1.84h-.71Z"/><path class="cls-1" d="M46.53,50.44c1.92,0,3.8,0,5.67,0,.15,0,.3.01.45,0,.39-.06.61-.3.64-.69.02-.37-.26-.69-.65-.72-.36-.03-.71-.01-1.07-.01-2.02,0-4.05,0-6.07,0-.17,0-.37-.02-.5-.11-1.35-.99-2.84-1.44-4.56-1.26v-.5c0-3.57,0-7.14,0-10.71,0-1.16.53-1.69,1.69-1.7,2.6,0,5.21,0,7.81,0h.5c0,.18,0,.34,0,.5,0,1.22,0,2.44,0,3.66,0,.97.59,1.55,1.56,1.56,1.37,0,2.73,0,4.16,0v.5c0,4.51,0,9.02,0,13.53,0,1.15-.54,1.68-1.7,1.69-2.25,0-4.49,0-6.74,0-.15,0-.3,0-.41,0,.11-.95.23-1.87.35-2.86.19,0,.48,0,.78,0,1.34,0,2.68,0,4.02,0,.53,0,.85-.28.85-.71,0-.43-.32-.71-.84-.72-1.62,0-3.24,0-4.87,0-.3,0-.45-.08-.55-.37-.12-.35-.31-.67-.5-1.07ZM48.26,44.72c1.37,0,2.74,0,4.11,0,.59,0,.93-.27.92-.73-.01-.44-.34-.7-.91-.7-2.72,0-5.45,0-8.17,0-.59,0-.93.27-.92.73.01.44.34.7.91.7,1.35,0,2.71,0,4.06,0ZM48.29,46.15c-1.37,0-2.74,0-4.11,0-.56,0-.89.27-.89.71,0,.45.33.71.89.71,2.74,0,5.48,0,8.21,0,.56,0,.89-.27.89-.71,0-.45-.33-.71-.89-.71-1.37,0-2.74,0-4.11,0Z"/><path class="cls-1" d="M46.15,54.01c0,2.75-2.25,4.99-5,4.99-2.77,0-5.02-2.26-5-5.03.01-2.75,2.27-4.98,5.02-4.97,2.75,0,4.98,2.25,4.98,5.01ZM40.4,54.46c-.31-.34-.57-.64-.85-.92-.33-.32-.74-.32-1.03-.04-.29.29-.3.7.02,1.03.45.47.91.94,1.39,1.39.33.32.69.31,1.04.01.18-.16.34-.33.51-.5.76-.76,1.52-1.51,2.26-2.27.46-.47.33-1.16-.25-1.25-.24-.04-.59.11-.78.28-.76.7-1.48,1.46-2.29,2.27Z"/><path class="cls-1" d="M49.02,30.66v-2.77c6.86.76,14.19,6.82,15.42,15.37h-2.81c-1.64-6.76-5.83-10.96-12.62-12.61Z"/><path class="cls-1" d="M61.64,49.02h2.78c-.86,7.16-7.09,14.26-15.39,15.42v-2.8c6.76-1.63,10.96-5.83,12.61-12.62Z"/><path class="cls-1" d="M30.66,43.28h-2.78c.92-7.42,7.31-14.29,15.39-15.42v2.8c-6.77,1.63-10.97,5.83-12.61,12.62Z"/><path class="cls-1" d="M27.85,49.02h2.8c1.63,6.77,5.83,10.97,12.62,12.62v2.77c-6.87-.79-14.19-6.81-15.42-15.39Z"/><path class="cls-1" d="M51.89,34.84c1.38,1.38,2.76,2.76,4.13,4.13h-4.13v-4.13Z"/></g></svg>