<?xml version="1.0" encoding="UTF-8"?><svg id="Layer_2" xmlns="http://www.w3.org/2000/svg" viewBox="0 0 92.3 92.3"><defs><style>.cls-1{fill:#e4801d;stroke-width:0px;}.cls-2{fill:#fff;stroke:#656565;stroke-miterlimit:10;stroke-width:.3px;}</style></defs><g id="Layer_1-2"><circle class="cls-2" cx="46.15" cy="46.15" r="46"/><path class="cls-1" d="M43.34,66.19c-.01-.67-.03-1.34-.03-2.01,0-.43-.16-.65-.6-.74-1.19-.23-2.29-.69-3.3-1.38-.33-.22-.59-.2-.87.09-.46.49-.93.96-1.37,1.41-.64-.64-1.24-1.24-1.88-1.88.44-.43.91-.89,1.38-1.34.3-.28.35-.55.11-.9-.68-1-1.14-2.11-1.37-3.3-.09-.45-.33-.59-.75-.58-.64.02-1.27,0-1.94,0v-2.6c.65,0,1.29-.01,1.92,0,.45.01.69-.15.78-.61.23-1.18.68-2.27,1.36-3.26.25-.37.21-.65-.11-.94-.48-.44-.94-.91-1.39-1.36.64-.63,1.23-1.23,1.88-1.88.45.46.92.93,1.37,1.42.28.31.56.33.9.1.99-.67,2.08-1.13,3.26-1.36.45-.09.64-.32.62-.77-.02-.64,0-1.27,0-1.94h2.6c0,.62,0,1.24,0,1.85,0,.65.07.74.71.87,1.11.23,2.15.65,3.08,1.3.42.29.72.24,1.05-.12.42-.46.87-.89,1.28-1.31.62.62,1.23,1.23,1.87,1.87-.44.43-.92.91-1.4,1.37-.29.27-.32.53-.09.86.68,1,1.15,2.11,1.38,3.3.09.47.34.61.78.6.62-.02,1.25,0,1.91,0v2.6c-.6,0-1.2,0-1.8,0-.72,0-.77.04-.92.71-.24,1.11-.66,2.15-1.3,3.08-.29.42-.24.72.13,1.05.46.42.9.86,1.32,1.27-.64.64-1.24,1.24-1.89,1.88-.42-.44-.89-.9-1.33-1.38-.3-.32-.58-.34-.94-.09-.99.68-2.08,1.12-3.26,1.36-.45.09-.59.31-.59.74,0,.67-.02,1.34-.04,2.01h-2.53ZM51.9,54.24c-.02-4.04-3.27-7.28-7.31-7.27-4.03.01-7.28,3.27-7.27,7.31.01,4.03,3.29,7.3,7.31,7.27,4.04-.02,7.29-3.29,7.27-7.32Z"/><path class="cls-1" d="M65.16,26.11c.11.04.23.08.34.12,1.16.35,1.88,1.47,1.71,2.67-.16,1.14-1.16,2.01-2.33,2.02-1.21.01-2.21-.83-2.41-2.05-.18-1.12.53-2.25,1.65-2.62.13-.04.26-.09.38-.14.22,0,.44,0,.66,0Z"/><path class="cls-1" d="M27.8,26.11c.13.05.25.1.38.14,1.12.37,1.83,1.5,1.65,2.62-.2,1.22-1.19,2.06-2.41,2.05-1.17-.01-2.18-.89-2.33-2.02-.17-1.2.55-2.32,1.71-2.67.12-.03.23-.08.34-.12.22,0,.44,0,.66,0Z"/><path class="cls-1" d="M35.86,48.7c-.14.24-.28.41-.33.59-.21.75-.71.86-1.41.83-1.14-.06-2.28,0-3.42-.03-2.33-.05-4.3-1.64-4.85-3.89-.55-2.22.45-4.53,2.46-5.67,1.16-.66,2.41-.82,3.71-.52.76.17.97-.05.79-.83-.49-2.13.05-3.95,1.76-5.31,1.73-1.37,3.64-1.49,5.62-.51.68.34.86.27,1.06-.46.64-2.38,2.74-3.92,5.18-3.82,2.42.1,4.36,1.8,4.81,4.21.02.09.01.2.06.27.1.18.19.43.35.48.16.05.43-.05.57-.18.7-.67,1.5-1.17,2.45-1.39,2.02-.46,3.76.07,5.11,1.64,1.34,1.56,1.6,3.37.85,5.3-.3.76-.31.76.39,1.17,1.94,1.15,2.9,3.46,2.35,5.64-.56,2.22-2.51,3.8-4.78,3.86-1.39.03-2.78.02-4.17,0-.14,0-.33-.1-.4-.21-.23-.37-.42-.76-.64-1.19.49-.48,1-.97,1.49-1.47.35-.36.36-.56.01-.91-.77-.78-1.54-1.55-2.32-2.32-.35-.34-.56-.34-.91.01-.5.49-.98,1-1.45,1.48-.57-.28-1.08-.56-1.61-.78-.53-.22-1.09-.38-1.7-.59,0-.64,0-1.32,0-2,0-.59-.15-.74-.75-.74-1.05,0-2.09,0-3.14,0-.51,0-.67.16-.68.67,0,.69,0,1.37,0,2-1.11.46-2.18.9-3.34,1.38-.41-.42-.9-.92-1.4-1.42-.37-.37-.58-.37-.95,0-.77.76-1.53,1.52-2.28,2.28-.36.37-.36.57.01.94.49.48.98.96,1.49,1.45ZM44.79,35.67c-.19,0-.38-.01-.56,0-2.43.2-4.66,1.05-6.8,2.18-.03.01-.07.03-.08.05-.06.2-.22.46-.15.6.07.14.36.2.57.24.1.02.22-.1.33-.15,1.96-.98,3.99-1.77,6.2-1.94,1.33-.1,2.58.1,3.65.98.27.22.54.28.77-.02.21-.28.09-.52-.15-.73-1.09-.93-2.39-1.23-3.78-1.22Z"/><path class="cls-1" d="M28.18,65.27c-1.34-.01-2.38-1.08-2.36-2.43.02-1.3,1.11-2.37,2.41-2.35,1.3.02,2.37,1.1,2.37,2.4,0,1.33-1.08,2.39-2.42,2.38Z"/><path class="cls-1" d="M63.4,62.89c0,1.32-1.04,2.37-2.36,2.38-1.33.01-2.42-1.06-2.42-2.38,0-1.31,1.11-2.41,2.42-2.4,1.31.01,2.36,1.08,2.36,2.4Z"/><path class="cls-1" d="M27.39,50.26c.51.23.98.43,1.44.65.09.04.19.17.19.26,0,2.74,0,5.49,0,8.23h-1.64v-9.14Z"/><path class="cls-1" d="M61.84,50.24v9.17h-1.65c0-.13,0-.28,0-.43,0-2.51,0-5.02,0-7.52,0-.34.06-.53.42-.64.41-.13.79-.36,1.24-.57Z"/><path class="cls-1" d="M26.65,32.01h1.63c0,.46,0,.95,0,1.44,0,.28,0,.56.05.84.13.71.68,1.18,1.41,1.2.71.02,1.43,0,2.18,0-.14.57-.27,1.1-.4,1.61-.8,0-1.62.11-2.4-.02-1.38-.23-2.34-1.35-2.47-2.74-.06-.7-.03-1.4-.04-2.1,0-.07.02-.15.04-.23Z"/><path class="cls-1" d="M62.16,37.12c-.09-.51-.18-1.03-.29-1.63.2,0,.38,0,.56,0,.97-.03,1.56-.62,1.58-1.59.01-.62,0-1.24,0-1.89h1.68c-.06,1.1.18,2.2-.28,3.26-.55,1.28-1.93,2.06-3.25,1.85Z"/><path class="cls-1" d="M44.6,60.58c-3.48,0-6.31-2.83-6.32-6.31,0-3.5,2.85-6.34,6.35-6.33,3.47.01,6.29,2.85,6.29,6.34,0,3.48-2.84,6.3-6.32,6.3ZM48.27,54.26c-.56.44-1.09.86-1.62,1.26-.28.21-.46.47-.19.79.24.29.52.2.78-.01.66-.52,1.33-1.03,1.99-1.56.43-.35.43-.63,0-.98-.65-.51-1.3-1.01-1.95-1.53-.27-.22-.56-.34-.82-.03-.26.32-.07.57.21.78.53.41,1.05.82,1.61,1.26ZM40.95,54.26c.59-.46,1.11-.87,1.64-1.28.27-.21.41-.46.18-.76-.23-.29-.51-.22-.78-.01-.67.53-1.36,1.05-2.03,1.58-.41.33-.41.61.01.95.66.53,1.33,1.04,1.99,1.56.28.22.57.31.81-.01.23-.31.05-.55-.21-.75-.53-.41-1.05-.82-1.62-1.27ZM45.54,56.29c-.03-.21-.04-.29-.06-.37-.27-1.17-.55-2.33-.82-3.5-.08-.34-.26-.55-.62-.46-.35.08-.39.37-.32.67.08.4.18.79.28,1.18.19.8.38,1.61.56,2.41.07.3.26.5.56.41.18-.05.32-.26.42-.35Z"/></g></svg>