<?xml version="1.0" encoding="UTF-8"?><svg id="Layer_2" xmlns="http://www.w3.org/2000/svg" viewBox="0 0 92.3 92.3"><defs><style>.cls-1{fill:#e4801d;stroke-width:0px;}.cls-2{fill:#fff;stroke:#656565;stroke-miterlimit:10;stroke-width:.3px;}</style></defs><g id="Layer_1-2"><circle class="cls-2" cx="46.15" cy="46.15" r="46"/><path class="cls-1" d="M45.84,26.15h.62c.68.31.93.85.87,1.57-.03.38,0,.77,0,1.15,4.34.35,8.03,2.01,11.06,5.04,3.04,3.04,4.69,6.75,5.04,11.06.4,0,.78.03,1.15,0,.73-.06,1.26.19,1.57.86v.62c-.31.68-.85.93-1.57.87-.38-.03-.77,0-1.15,0-.35,4.34-2.01,8.03-5.04,11.06-3.04,3.04-6.75,4.7-11.06,5.04,0,.4-.03.78,0,1.15.06.73-.19,1.26-.86,1.57h-.62c-.67-.31-.93-.85-.87-1.57.03-.38,0-.77,0-1.15-4.34-.36-8.03-2.01-11.06-5.04-3.04-3.04-4.7-6.75-5.04-11.06-.4,0-.77-.03-1.15,0-.73.06-1.26-.19-1.57-.86v-.62c.31-.68.85-.93,1.57-.87.37.03.75,0,1.15,0,.35-4.32,2-8.02,5.04-11.06,3.04-3.04,6.75-4.69,11.06-5.04,0-.4.03-.78,0-1.15-.06-.73.19-1.26.87-1.57ZM47.32,61.06c7.66-.58,13.32-6.92,13.72-13.74-.43,0-.86,0-1.28,0-.79,0-1.33-.48-1.33-1.17,0-.69.54-1.17,1.32-1.18.44,0,.87,0,1.31,0-.59-7.72-6.98-13.33-13.74-13.72,0,.43,0,.85,0,1.28,0,.79-.48,1.33-1.17,1.33-.69,0-1.17-.54-1.18-1.32,0-.44,0-.87,0-1.31-7.67.59-13.32,6.93-13.72,13.74.43,0,.86,0,1.28,0,.79,0,1.33.48,1.33,1.17,0,.69-.54,1.17-1.32,1.18-.44,0-.87,0-1.31,0,.59,7.68,6.94,13.32,13.74,13.72,0-.45,0-.91,0-1.36,0-.72.5-1.25,1.17-1.26.66,0,1.17.53,1.18,1.24,0,.45,0,.91,0,1.39Z"/><path class="cls-1" d="M56.73,46.17c-.03,5.86-4.77,10.58-10.6,10.56-5.85-.02-10.59-4.78-10.56-10.6.03-5.85,4.77-10.58,10.6-10.56,5.85.02,10.59,4.78,10.56,10.6ZM45.16,46.56c-.37-.39-.71-.75-1.06-1.1-.52-.51-1.23-.52-1.71-.04-.46.47-.44,1.2.07,1.71.61.62,1.23,1.24,1.85,1.85.58.57,1.26.56,1.82-.03.6-.63,1.19-1.27,1.78-1.91.67-.71,1.34-1.42,1.99-2.15.38-.42.42-.96.16-1.41-.25-.43-.74-.67-1.24-.53-.26.07-.52.24-.71.44-.98,1.02-1.94,2.07-2.96,3.16Z"/></g></svg>