<?xml version="1.0" encoding="UTF-8"?><svg id="Layer_2" xmlns="http://www.w3.org/2000/svg" viewBox="0 0 92.3 92.3"><defs><style>.cls-1{fill:#e4801d;stroke-width:0px;}.cls-2{fill:#fff;stroke:#656565;stroke-miterlimit:10;stroke-width:.3px;}</style></defs><g id="Layer_1-2"><circle class="cls-2" cx="46.15" cy="46.15" r="46"/><path class="cls-1" d="M45.21,26.26c.64,0,1.27,0,1.91,0,.82.1,1.65.15,2.45.32,8.22,1.73,13.52,6.63,15.87,14.7.08.29.19.45.49.55,1.62.56,2.62,1.68,3.04,3.34.06.23.1.46.15.69v.67c-.03.1-.07.21-.09.31-.31,1.74-1.28,2.96-2.93,3.59-.43.16-.59.38-.72.8-2.39,7.9-7.62,12.73-15.71,14.43-.96.2-1.95.25-2.93.37h-.96c-.9-.4-1.19-1.1-1.16-2.07.06-1.81.01-3.63.02-5.45,0-.97.65-1.66,1.54-1.65.88,0,1.52.7,1.52,1.67,0,1.27,0,2.55,0,3.82,0,.16.01.33.02.5,2.5-.21,4.96-.99,7.19-2.37,3.72-2.3,6.2-5.56,7.45-9.75.1-.34.03-.49-.26-.68-.38-.25-.79-.53-1.04-.9-.45-.64-.8-1.36-1.13-1.94-.64,5.67-3.68,9.68-9.16,11.96.07-2.86-1.17-4.66-3.97-5.36.21-.04.34-.08.48-.1,1.79-.26,3.29-1.06,4.52-2.37.65-.69.64-1.61,0-2.22-.62-.58-1.56-.58-2.18.09-1.86,2.01-4.99,2.02-6.87-.03-.61-.67-1.56-.68-2.18-.09-.64.6-.64,1.53,0,2.22,1.1,1.19,2.45,1.97,4.04,2.31.29.06.58.11.96.18-2.82.71-4.08,2.49-4,5.37-5.64-2.36-8.68-6.52-9.21-12.54-.01.04-.03.07-.03.1-.31,2.28-2.17,3.97-4.41,4.01-2.34.04-4.26-1.56-4.66-3.9-.37-2.16.97-4.32,3.14-5.02.29-.1.41-.24.5-.54,2.31-7.95,7.5-12.84,15.59-14.63.9-.2,1.82-.26,2.73-.39ZM59.93,45.37c.58-1.7,1.1-2.46,2.16-3.09.33-.19.38-.37.27-.71-2.01-6.33-6.21-10.43-12.69-11.81-6.52-1.39-12.07.66-16.46,5.69-1.57,1.8-2.62,3.91-3.25,6.21-.04.16,0,.45.1.51,1.32.81,2.07,1.98,2.3,3.6.23-7.02,5.74-12.91,12.95-13.36,3.09-.19,5.95.56,8.51,2.31,3.71,2.54,5.7,6.11,6.12,10.66Z"/></g></svg>