<?xml version="1.0" encoding="UTF-8"?><svg id="Layer_2" xmlns="http://www.w3.org/2000/svg" viewBox="0 0 92.3 92.3"><defs><style>.cls-1{fill:#e4801d;stroke-width:0px;}.cls-2{fill:#fff;stroke:#656565;stroke-miterlimit:10;stroke-width:.3px;}</style></defs><g id="Layer_1-2"><circle class="cls-2" cx="46.15" cy="46.15" r="46"/><path class="cls-1" d="M66.15,58.98c-.16.56-.53.97-.94,1.37-.63.61-1.24,1.24-1.87,1.86-.79.78-1.76.78-2.54,0-4.5-4.5-9-9-13.5-13.5-.13-.13-.25-.22-.14-.46.87-1.84,2.72-3.66,4.76-4.56.06.1.13.27.25.38,4.36,4.36,8.72,8.73,13.08,13.08.39.39.76.79.9,1.35v.47Z"/><path class="cls-1" d="M48.04,26.15c.56.14.95.5,1.35.9,2.97,2.98,5.95,5.96,8.93,8.93.93.93.92,1.83,0,2.76-.69.69-1.37,1.37-2.06,2.06-.82.82-1.78.82-2.59.01-3.1-3.1-6.2-6.19-9.29-9.29-.82-.82-.81-1.77,0-2.59.62-.62,1.25-1.23,1.86-1.87.39-.4.8-.75,1.34-.91h.47Z"/><path class="cls-1" d="M26.15,62.76c.17,0,.34.02.51.02,7.49,0,14.97,0,22.46,0,.17,0,.34,0,.58,0v3.37h-23.54v-3.39Z"/><path class="cls-1" d="M44.74,51.67c0,.41-.17.81-.5,1.14-.78.79-1.57,1.59-2.37,2.36-.74.71-1.71.67-2.48-.11-2-1.99-3.99-3.99-5.98-5.98-1.09-1.09-2.19-2.19-3.28-3.28-.84-.84-.84-1.79,0-2.62.72-.72,1.44-1.45,2.17-2.17.78-.78,1.76-.78,2.54,0,3.12,3.11,6.23,6.23,9.35,9.35.35.35.56.75.56,1.32Z"/><path class="cls-1" d="M52.07,41.74c-1.57.67-3.04,1.55-4.26,2.78-1.21,1.22-2.08,2.69-2.76,4.25-2.88-2.88-5.75-5.75-8.66-8.66,3.34-1.35,5.7-3.7,7.04-7.02,2.89,2.9,5.76,5.77,8.64,8.64Z"/><path class="cls-1" d="M46.31,61.09h-16.76c0-.69-.06-1.38.02-2.04.09-.77.83-1.32,1.67-1.32,1.9,0,3.8,0,5.71,0,2.51,0,5.01,0,7.52,0,1.17,0,1.85.68,1.85,1.86,0,.5,0,.99,0,1.51Z"/></g></svg>