<?xml version="1.0" encoding="UTF-8" standalone="no"?>
<!-- Created with Inkscape (http://www.inkscape.org/) -->

<svg
   xmlns:dc="http://purl.org/dc/elements/1.1/"
   xmlns:cc="http://creativecommons.org/ns#"
   xmlns:rdf="http://www.w3.org/1999/02/22-rdf-syntax-ns#"
   xmlns:svg="http://www.w3.org/2000/svg"
   xmlns="http://www.w3.org/2000/svg"
   xmlns:sodipodi="http://sodipodi.sourceforge.net/DTD/sodipodi-0.dtd"
   xmlns:inkscape="http://www.inkscape.org/namespaces/inkscape"
   width="1000"
   height="778.97418"
   id="svg3995"
   version="1.1"
   inkscape:version="0.48.5 r10040"
   sodipodi:docname="A.svg">
  <defs
     id="defs3997">
    <clipPath
       clipPathUnits="userSpaceOnUse"
       id="clipPath3105">
      <path
         inkscape:connector-curvature="0"
         d="m 0,0 765.354,0 0,1077.165 L 0,1077.165 0,0 z"
         id="path3107" />
    </clipPath>
    <clipPath
       clipPathUnits="userSpaceOnUse"
       id="clipPath3081">
      <path
         inkscape:connector-curvature="0"
         d="m 0,0 765.354,0 0,1077.165 L 0,1077.165 0,0 z"
         id="path3083" />
    </clipPath>
    <clipPath
       clipPathUnits="userSpaceOnUse"
       id="clipPath3065">
      <path
         inkscape:connector-curvature="0"
         d="m 0,0 765.354,0 0,1077.165 L 0,1077.165 0,0 z"
         id="path3067" />
    </clipPath>
    <clipPath
       clipPathUnits="userSpaceOnUse"
       id="clipPath3051">
      <path
         inkscape:connector-curvature="0"
         d="m 0,0 765.354,0 0,1077.165 L 0,1077.165 0,0 z"
         id="path3053" />
    </clipPath>
    <clipPath
       clipPathUnits="userSpaceOnUse"
       id="clipPath3035">
      <path
         inkscape:connector-curvature="0"
         d="m 0,0 765.354,0 0,1077.165 L 0,1077.165 0,0 z"
         id="path3037" />
    </clipPath>
    <clipPath
       clipPathUnits="userSpaceOnUse"
       id="clipPath4964">
      <path
         inkscape:connector-curvature="0"
         d="m 487.559,20.409 73.701,0 0,56.126 -73.701,0 0,-56.126 z"
         id="path4966" />
    </clipPath>
    <clipPath
       clipPathUnits="userSpaceOnUse"
       id="clipPath4870">
      <path
         inkscape:connector-curvature="0"
         d="m 487.559,20.409 73.701,0 0,56.126 -73.701,0 0,-56.126 z"
         id="path4872" />
    </clipPath>
    <clipPath
       clipPathUnits="userSpaceOnUse"
       id="clipPath7539">
      <path
         inkscape:connector-curvature="0"
         d="m 0,0 280.63,0 0,595.275 L 0,595.275 0,0 z"
         id="path7541" />
    </clipPath>
  </defs>
  <sodipodi:namedview
     id="base"
     pagecolor="#ffffff"
     bordercolor="#666666"
     borderopacity="1.0"
     inkscape:pageopacity="0.0"
     inkscape:pageshadow="2"
     inkscape:zoom="0.40651735"
     inkscape:cx="556.3729"
     inkscape:cy="167.8215"
     inkscape:document-units="px"
     inkscape:current-layer="layer1"
     showgrid="false"
     fit-margin-left="0.5"
     fit-margin-bottom="0.5"
     fit-margin-top="0.5"
     fit-margin-right="0.5"
     inkscape:window-width="1060"
     inkscape:window-height="1038"
     inkscape:window-x="857"
     inkscape:window-y="-13"
     inkscape:window-maximized="0" />
  <metadata
     id="metadata4000">
    <rdf:RDF>
      <cc:Work
         rdf:about="">
        <dc:format>image/svg+xml</dc:format>
        <dc:type
           rdf:resource="http://purl.org/dc/dcmitype/StillImage" />
        <dc:title></dc:title>
      </cc:Work>
    </rdf:RDF>
  </metadata>
  <g
     inkscape:label="Layer 1"
     inkscape:groupmode="layer"
     id="layer1"
     transform="translate(-787.70741,1403.2077)">
    <g
       id="g7457"
       transform="matrix(19.443475,0,0,-19.443475,830.26365,-879.49744)">
      <path
         d="m 0,0 -0.033,0 -1.021,-0.14 c -0.097,-0.021 -0.162,-0.053 -0.173,-0.15 l -0.936,-7.639 0,-0.022 c 0,-0.075 0.064,-0.14 0.162,-0.14 l 0.958,0 c 0.096,0 0.182,0.075 0.193,0.162 l 0.958,7.779 0,0.032 C 0.108,-0.054 0.075,0 0,0"
         style="fill:#006946;fill-opacity:1;fill-rule:nonzero;stroke:none"
         id="path7459"
         inkscape:connector-curvature="0" />
    </g>
    <g
       id="g7461"
       transform="matrix(19.443475,0,0,-19.443475,939.21524,-827.82632)">
      <path
         d="M 0,0 C -0.301,0.258 -0.796,0.354 -1.474,0.354 -2.162,0.354 -3.152,0.215 -3.722,0.053 -4.326,-0.129 -4.476,-0.28 -4.53,-0.7 l -0.56,-4.572 0,-0.022 c 0,-0.086 0.055,-0.14 0.151,-0.14 l 0.894,0 c 0.097,0 0.161,0.065 0.172,0.162 l 0.559,4.519 c 0,0 0.839,0.226 1.625,0.226 0.312,0 0.516,-0.054 0.646,-0.184 0.096,-0.096 0.151,-0.247 0.151,-0.441 0,-0.15 -0.022,-0.301 -0.044,-0.451 l -0.452,-3.669 0,-0.022 c 0,-0.086 0.054,-0.14 0.151,-0.14 l 0.892,0 c 0.097,0 0.162,0.065 0.173,0.162 l 0.452,3.669 c 0.032,0.236 0.065,0.484 0.065,0.721 C 0.345,-0.474 0.226,-0.193 0,0"
         style="fill:#006946;fill-opacity:1;fill-rule:nonzero;stroke:none"
         id="path7463"
         inkscape:connector-curvature="0" />
    </g>
    <g
       id="g7465"
       transform="matrix(19.443475,0,0,-19.443475,1061.7577,-829.28458)">
      <path
         d="m 0,0 c 0,0.087 -0.053,0.14 -0.14,0.14 l -0.947,0 c -0.118,0 -0.182,-0.053 -0.226,-0.161 l -1.743,-4.681 -0.279,0 -0.721,4.681 C -4.078,0.087 -4.121,0.14 -4.239,0.14 l -0.915,0 c -0.107,0 -0.172,-0.086 -0.172,-0.193 l 0,-0.033 1.011,-5.25 c 0.022,-0.108 0.086,-0.173 0.194,-0.173 l 1.635,0 c 0.108,0 0.183,0.065 0.237,0.173 l 2.238,5.272 C 0,-0.042 0,-0.021 0,0"
         style="fill:#006946;fill-opacity:1;fill-rule:nonzero;stroke:none"
         id="path7467"
         inkscape:connector-curvature="0" />
    </g>
    <g
       id="g7469"
       transform="matrix(19.443475,0,0,-19.443475,1118.0037,-834.72689)">
      <path
         d="m 0,0 c -0.904,0 -1.657,-0.215 -2.153,-0.764 -0.473,-0.527 -0.839,-1.679 -0.839,-2.83 0,-1.248 0.366,-2.333 2.443,-2.333 0.688,0 1.399,0.106 2.055,0.332 0.086,0.022 0.14,0.076 0.14,0.162 l 0,0.032 -0.086,0.505 c -0.022,0.097 -0.065,0.129 -0.119,0.129 -0.021,0 -0.032,0 -0.053,-0.011 -0.421,-0.107 -1.012,-0.268 -1.581,-0.268 -0.463,0 -0.851,0.064 -1.131,0.226 -0.301,0.183 -0.452,0.473 -0.452,0.936 0,0.021 0.011,0.043 0.011,0.075 l 0,0.129 0.053,0 c 2.551,0 3.939,0.129 3.939,1.904 C 2.227,-0.344 1.269,0 0,0 m -1.69,-2.883 c 0.076,1.033 0.334,2.022 1.582,2.022 0.679,0 1.141,-0.269 1.141,-0.968 0,-1.054 -0.925,-0.947 -2.723,-1.054"
         style="fill:#006946;fill-opacity:1;fill-rule:nonzero;stroke:none"
         id="path7471"
         inkscape:connector-curvature="0" />
    </g>
    <g
       id="g7473"
       transform="matrix(19.443475,0,0,-19.443475,1240.7213,-830.9645)">
      <path
         d="m 0,0 c 0,0.011 0.011,0.022 0.011,0.033 0,0.096 -0.064,0.117 -0.097,0.128 -0.097,0.022 -0.076,0.022 -0.248,0.022 l -0.182,0 C -1.098,0.172 -1.893,0.053 -2.378,-0.118 -2.862,-0.279 -3.055,-0.409 -3.109,-0.85 l -0.571,-4.583 0,-0.012 c 0,-0.096 0.118,-0.15 0.151,-0.15 l 0.893,0 c 0.097,0 0.161,0.064 0.172,0.162 l 0.56,4.486 c 0.43,0.108 1,0.172 1.667,0.172 0.129,0 0.151,0.075 0.162,0.162 L 0,0 z"
         style="fill:#006946;fill-opacity:1;fill-rule:nonzero;stroke:none"
         id="path7475"
         inkscape:connector-curvature="0" />
    </g>
    <g
       id="g7477"
       transform="matrix(19.443475,0,0,-19.443475,1331.1898,-829.28458)">
      <path
         d="m 0,0 c -0.248,0.13 -1.001,0.28 -1.712,0.28 -1.43,0 -2.194,-0.462 -2.614,-1.421 -0.279,-0.656 -0.43,-1.656 -0.43,-2.399 0,-0.689 0.14,-1.205 0.484,-1.559 0.366,-0.356 0.947,-0.527 1.84,-0.527 0.7,0 1.496,0.15 1.776,0.279 0.064,0.032 0.14,0.075 0.14,0.182 l 0,0.033 -0.044,0.484 c -0.011,0.087 -0.064,0.118 -0.129,0.118 l -0.075,0 c -0.237,-0.064 -0.817,-0.204 -1.366,-0.204 -0.527,0 -0.872,0.097 -1.098,0.334 -0.194,0.204 -0.279,0.527 -0.279,0.99 0,0.527 0.097,1.291 0.279,1.774 0.258,0.754 0.721,1.023 1.603,1.023 0.549,0 1.087,-0.15 1.323,-0.215 0.022,-0.011 0.043,-0.011 0.065,-0.011 0.064,0 0.129,0.033 0.162,0.118 l 0.161,0.506 c 0.011,0.033 0.011,0.054 0.011,0.076 C 0.097,-0.064 0.053,-0.032 0,0"
         style="fill:#006946;fill-opacity:1;fill-rule:nonzero;stroke:none"
         id="path7479"
         inkscape:connector-curvature="0" />
    </g>
    <g
       id="g7481"
       transform="matrix(19.443475,0,0,-19.443475,1426.667,-829.08051)">
      <path
         d="m 0,0 c -0.312,0.183 -0.796,0.29 -1.56,0.29 -1.055,0 -2.044,-0.247 -2.357,-0.354 -0.053,-0.022 -0.139,-0.064 -0.139,-0.172 l 0,-0.012 0.053,-0.602 c 0.011,-0.064 0.055,-0.086 0.098,-0.086 0.032,0 0.053,0.011 0.075,0.011 0.376,0.086 1.173,0.301 1.948,0.301 0.408,0 0.698,-0.032 0.87,-0.107 0.227,-0.097 0.259,-0.258 0.259,-0.485 0,-0.183 -0.043,-0.441 -0.064,-0.602 L -2.819,-2.141 C -3.508,-2.26 -4.132,-2.356 -4.508,-2.905 -4.723,-3.249 -4.82,-3.744 -4.82,-4.154 c 0,-0.591 0.226,-0.945 0.57,-1.162 0.484,-0.301 1.184,-0.321 1.764,-0.321 0.593,0 1.109,0.064 1.474,0.15 0.764,0.171 1.001,0.333 1.098,1.119 l 0.334,2.7 c 0.032,0.237 0.053,0.464 0.053,0.7 l 0,0.032 C 0.473,-0.56 0.377,-0.226 0,0 m -1.162,-4.627 c -0.323,-0.107 -0.742,-0.171 -1.183,-0.171 -0.312,0 -0.679,0.021 -0.926,0.193 -0.183,0.108 -0.301,0.301 -0.301,0.613 0,0.237 0.054,0.485 0.172,0.667 0.194,0.301 0.528,0.345 0.872,0.398 l 1.603,0.259 -0.237,-1.959 z"
         style="fill:#006946;fill-opacity:1;fill-rule:nonzero;stroke:none"
         id="path7483"
         inkscape:connector-curvature="0" />
    </g>
    <g
       id="g7485"
       transform="matrix(19.443475,0,0,-19.443475,1519.1052,-831.59058)">
      <path
         d="m 0,0 c 0,0.097 -0.065,0.119 -0.097,0.129 -0.096,0.022 -0.076,0.022 -0.247,0.022 l -0.183,0 C -1.109,0.139 -1.904,0.022 -2.389,-0.151 -2.873,-0.312 -3.067,-0.441 -3.12,-0.882 l -0.571,-4.584 0,-0.011 c 0,-0.096 0.119,-0.151 0.15,-0.151 l 0.894,0 c 0.096,0 0.161,0.066 0.171,0.162 l 0.561,4.487 c 0.429,0.107 1,0.172 1.667,0.172 0.13,0 0.151,0.076 0.162,0.161 l 0.075,0.613 C -0.011,-0.021 0,-0.011 0,0"
         style="fill:#006946;fill-opacity:1;fill-rule:nonzero;stroke:none"
         id="path7487"
         inkscape:connector-curvature="0" />
    </g>
    <g
       id="g7489"
       transform="matrix(19.443475,0,0,-19.443475,1613.375,-830.33842)">
      <path
         d="m 0,0 c -0.43,0.108 -0.99,0.226 -1.711,0.226 -1.517,0 -2.324,-0.473 -2.733,-1.742 -0.204,-0.625 -0.312,-1.303 -0.312,-1.981 0,-0.71 0.075,-1.27 0.42,-1.646 0.333,-0.366 0.882,-0.56 1.743,-0.56 0.637,0 1.082,0.086 1.431,0.166 0,0 -0.013,-0.079 -0.013,-0.1 0,-0.241 -0.224,-0.409 -0.557,-0.592 -0.309,-0.161 -0.776,-0.226 -1.239,-0.226 -0.571,0 -1.133,0.162 -1.534,0.269 -0.02,0.012 -0.031,0.012 -0.053,0.012 -0.053,0 -0.102,-0.033 -0.141,-0.13 l -0.175,-0.505 -0.005,-0.033 c -0.016,-0.086 0.028,-0.14 0.111,-0.161 0.616,-0.227 1.307,-0.333 1.996,-0.333 0.564,0 1.013,0.082 1.376,0.224 0.943,0.367 1.369,0.913 1.461,1.678 l 0,0.001 0.559,4.551 c 0.011,0.075 0.022,0.151 0.022,0.215 C 0.646,-0.345 0.505,-0.129 0,0 m -1.055,-4.659 c 0,0 -0.548,-0.161 -1.183,-0.161 -0.463,0 -0.807,0.042 -1.022,0.29 -0.172,0.194 -0.247,0.527 -0.247,1.065 0,0.549 0.085,1.195 0.247,1.722 0.269,0.893 0.72,1.087 1.506,1.087 0.635,0 1.173,-0.141 1.173,-0.141 l -0.474,-3.862 z"
         style="fill:#006946;fill-opacity:1;fill-rule:nonzero;stroke:none"
         id="path7491"
         inkscape:connector-curvature="0" />
    </g>
    <g
       id="g7493"
       transform="matrix(19.443475,0,0,-19.443475,1676.1579,-879.49744)">
      <path
         d="M 0,0 -0.763,0 C -0.915,0 -1,-0.075 -1.022,-0.215 l -0.14,-1.195 0,-0.042 c 0,-0.119 0.065,-0.173 0.194,-0.173 l 0.764,0 c 0.14,0 0.226,0.075 0.247,0.215 l 0.15,1.195 0,0.042 C 0.193,-0.065 0.129,0 0,0"
         style="fill:#006946;fill-opacity:1;fill-rule:nonzero;stroke:none"
         id="path7495"
         inkscape:connector-curvature="0" />
    </g>
    <g
       id="g7497"
       transform="matrix(19.443475,0,0,-19.443475,1671.3495,-830.74876)">
      <path
         d="m 0,0 -0.882,0 c -0.097,0 -0.183,-0.064 -0.194,-0.15 l -0.646,-5.272 0,-0.022 c 0,-0.086 0.055,-0.14 0.151,-0.14 l 0.882,0 c 0.098,0 0.173,0.065 0.183,0.162 l 0.646,5.272 0,0.021 C 0.14,-0.053 0.086,0 0,0"
         style="fill:#006946;fill-opacity:1;fill-rule:nonzero;stroke:none"
         id="path7499"
         inkscape:connector-curvature="0" />
    </g>
    <g
       id="g7501"
       transform="matrix(19.443475,0,0,-19.443475,1729.2055,-738.70521)">
      <path
         d="m 0,0 -0.043,0 c -0.076,-0.022 -0.216,-0.043 -0.378,-0.043 -0.117,0 -0.235,0.032 -0.322,0.107 -0.043,0.066 -0.075,0.14 -0.075,0.259 0,0.204 0.032,0.387 0.054,0.581 L 0,7.08 0,7.112 c 0,0.075 -0.043,0.13 -0.119,0.13 l -0.042,0 -0.904,-0.173 C -1.173,7.047 -1.227,7.005 -1.238,6.886 L -1.98,0.883 c -0.033,-0.248 -0.075,-0.56 -0.075,-0.819 0,-0.323 0.097,-0.57 0.279,-0.731 0.204,-0.194 0.496,-0.28 0.894,-0.28 0.483,0 0.807,0.097 0.904,0.14 0.02,0 0.107,0.054 0.107,0.151 l 0,0.021 -0.032,0.538 C 0.086,-0.022 0.053,0 0,0"
         style="fill:#006946;fill-opacity:1;fill-rule:nonzero;stroke:none"
         id="path7503"
         inkscape:connector-curvature="0" />
    </g>
    <g
       id="g7505"
       transform="matrix(19.443475,0,0,-19.443475,1786.5658,-736.82122)">
      <path
         d="m 0,0 c -0.011,0.075 -0.042,0.097 -0.097,0.097 l -0.043,0 C -0.215,0.075 -0.354,0.054 -0.516,0.054 c -0.119,0 -0.237,0.032 -0.323,0.107 -0.043,0.065 -0.075,0.14 -0.075,0.259 0,0.204 0.032,0.387 0.053,0.581 l 0.764,6.175 0,0.033 c 0,0.075 -0.043,0.129 -0.118,0.129 l -0.044,0 -0.903,-0.172 C -1.269,7.144 -1.324,7.101 -1.335,6.983 L -2.077,0.979 C -2.109,0.732 -2.152,0.42 -2.152,0.161 c 0,-0.323 0.097,-0.57 0.279,-0.731 0.205,-0.194 0.496,-0.28 0.894,-0.28 0.483,0 0.807,0.097 0.904,0.14 0.022,0 0.108,0.054 0.108,0.15 l 0,0.022 L 0,0 z"
         style="fill:#006946;fill-opacity:1;fill-rule:nonzero;stroke:none"
         id="path7507"
         inkscape:connector-curvature="0" />
    </g>
    <g
       id="g7509"
       transform="matrix(19.443475,0,0,-19.443475,1399.9497,-902.92091)">
      <path
         d="M 0,0 C 3.682,-0.918 7.054,-0.999 9.427,-0.331 3.152,1.501 -9.582,5.037 -9.915,17.564 -10.722,12.146 -9.054,5.48 0,0"
         style="fill:#006946;fill-opacity:1;fill-rule:nonzero;stroke:none"
         id="path7511"
         inkscape:connector-curvature="0" />
    </g>
    <g
       id="g7513"
       transform="matrix(19.443475,0,0,-19.443475,1281.3717,-973.39573)">
      <path
         d="m 0,0 c -5.311,5.119 -5.74,10.632 -4.691,15.77 0.108,0.523 0.23,1.043 0.364,1.559 0.427,1.64 0.974,3.232 1.523,4.751 -1.785,-0.525 -3.471,-1.244 -5.007,-2.095 -0.403,-1.748 -0.592,-3.342 -0.602,-4.808 -0.003,-0.515 0.015,-1.017 0.054,-1.502 C -7.862,7.578 -4.098,3.791 0,0"
         style="fill:#006946;fill-opacity:1;fill-rule:nonzero;stroke:none"
         id="path7515"
         inkscape:connector-curvature="0" />
    </g>
    <g
       id="g7517"
       transform="matrix(19.443475,0,0,-19.443475,1071.39,-1233.7498)">
      <path
         d="M 0,0 C -0.421,1.44 -0.676,2.791 -0.81,3.989 -2.095,2.902 -3.166,1.737 -3.965,0.567 -3.518,-0.522 -3.017,-1.559 -2.463,-2.544 -1.779,-1.674 -0.95,-0.815 0,0"
         style="fill:#6ec72e;fill-opacity:1;fill-rule:nonzero;stroke:none"
         id="path7519"
         inkscape:connector-curvature="0" />
    </g>
    <g
       id="g7521"
       transform="matrix(19.443475,0,0,-19.443475,1079.5057,-1208.6483)">
      <path
         d="M 0,0 C -0.856,-0.752 -1.608,-1.538 -2.241,-2.335 1.273,-7.985 6.442,-11.816 11.587,-14.054 5.024,-9.955 1.633,-4.634 0,0"
         style="fill:#6ec72e;fill-opacity:1;fill-rule:nonzero;stroke:none"
         id="path7523"
         inkscape:connector-curvature="0" />
    </g>
    <g
       id="g7525"
       transform="matrix(19.443475,0,0,-19.443475,1055.6817,-634.60298)">
      <path
         d="m 0,0 c -0.253,0 -0.354,0.256 -0.354,0.577 0,0.333 0.104,0.576 0.348,0.576 0.192,0 0.265,-0.123 0.34,-0.318 L 0.862,1.041 C 0.718,1.438 0.513,1.66 -0.003,1.66 c -0.565,0 -0.96,-0.407 -0.96,-1.083 0,-0.621 0.333,-1.084 0.957,-1.084 0.499,0 0.733,0.267 0.874,0.544 L 0.375,0.297 C 0.262,0.1 0.184,0 0,0"
         style="fill:#6ec72e;fill-opacity:1;fill-rule:nonzero;stroke:none"
         id="path7527"
         inkscape:connector-curvature="0" />
    </g>
    <path
       d="m 1084.8098,-625.37122 11.5689,0 0,-40.87018 -11.5689,0 0,40.87018 z"
       style="fill:#6ec72e;fill-opacity:1;fill-rule:nonzero;stroke:none"
       id="path7529"
       inkscape:connector-curvature="0" />
    <g
       id="g7531"
       transform="matrix(19.443475,0,0,-19.443475,1109.0773,-656.37765)">
      <path
         d="m 0,0 0.588,0 0,-1.594 0.583,0 0,1.594 0.588,0 0,0.507 L 0,0.507 0,0 z"
         style="fill:#6ec72e;fill-opacity:1;fill-rule:nonzero;stroke:none"
         id="path7533"
         inkscape:connector-curvature="0" />
    </g>
    <g
       id="g7535"
       transform="matrix(19.443475,0,0,-19.443475,-1434.7729,131.46606)">
      <g
         id="g7537"
         clip-path="url(#clipPath7539)">
        <g
           id="g7543"
           transform="translate(134.3812,40.7089)">
          <path
             d="M 0,0 C -0.112,-0.219 -0.201,-0.42 -0.24,-0.543 -0.279,-0.42 -0.369,-0.219 -0.481,0 l -0.162,0.318 -0.673,0 0.778,-1.326 0,-0.776 0.588,0 0,0.784 0.778,1.318 -0.666,0 L 0,0 z"
             style="fill:#6ec72e;fill-opacity:1;fill-rule:nonzero;stroke:none"
             id="path7545"
             inkscape:connector-curvature="0" />
        </g>
        <g
           id="g7547"
           transform="translate(137.9378,39.3998)">
          <path
             d="m 0,0 c -0.253,0 -0.354,0.256 -0.354,0.577 0,0.333 0.104,0.576 0.348,0.576 0.193,0 0.264,-0.123 0.34,-0.318 L 0.862,1.041 C 0.718,1.438 0.513,1.66 -0.003,1.66 c -0.565,0 -0.96,-0.407 -0.96,-1.083 0,-0.621 0.333,-1.084 0.957,-1.084 0.499,0 0.733,0.267 0.874,0.544 L 0.375,0.297 C 0.262,0.1 0.184,0 0,0"
             style="fill:#6ec72e;fill-opacity:1;fill-rule:nonzero;stroke:none"
             id="path7549"
             inkscape:connector-curvature="0" />
        </g>
        <g
           id="g7551"
           transform="translate(140.3094,41.0602)">
          <path
             d="m 0,0 c -0.571,0 -0.976,-0.387 -0.976,-1.087 0,-0.7 0.399,-1.081 0.97,-1.081 0.57,0 0.975,0.387 0.975,1.087 C 0.969,-0.381 0.571,0 0,0 m 0,-1.66 c -0.234,0 -0.372,0.201 -0.372,0.579 0,0.378 0.132,0.574 0.366,0.574 0.234,0 0.372,-0.202 0.372,-0.58 C 0.366,-1.465 0.234,-1.66 0,-1.66"
             style="fill:#6ec72e;fill-opacity:1;fill-rule:nonzero;stroke:none"
             id="path7553"
             inkscape:connector-curvature="0" />
        </g>
        <g
           id="g7555"
           transform="translate(143.1551,39.8232)">
          <path
             d="m 0,0 c 0,-0.258 -0.097,-0.417 -0.324,-0.417 -0.229,0 -0.33,0.159 -0.33,0.417 l 0,1.203 -0.595,0 0,-1.203 c 0,-0.666 0.387,-0.931 0.915,-0.931 0.529,0 0.928,0.265 0.928,0.931 l 0,1.203 L 0,1.203 0,0 z"
             style="fill:#6ec72e;fill-opacity:1;fill-rule:nonzero;stroke:none"
             id="path7557"
             inkscape:connector-curvature="0" />
        </g>
        <g
           id="g7559"
           transform="translate(145.748,40.4534)">
          <path
             d="m 0,0 c 0,-0.171 0.003,-0.45 0.018,-0.543 -0.045,0.087 -0.231,0.366 -0.327,0.495 l -0.462,0.622 -0.514,0 0,-2.102 0.558,0 0,0.643 c 0,0.171 -0.002,0.45 -0.017,0.543 0.054,-0.093 0.234,-0.363 0.327,-0.492 l 0.501,-0.694 0.474,0 0,2.102 L 0,0.574 0,0 z"
             style="fill:#6ec72e;fill-opacity:1;fill-rule:nonzero;stroke:none"
             id="path7561"
             inkscape:connector-curvature="0" />
        </g>
        <g
           id="g7563"
           transform="translate(147.9091,39.3998)">
          <path
             d="m 0,0 c -0.253,0 -0.354,0.256 -0.354,0.577 0,0.333 0.104,0.576 0.348,0.576 0.192,0 0.264,-0.123 0.339,-0.318 L 0.862,1.041 C 0.718,1.438 0.513,1.66 -0.003,1.66 c -0.565,0 -0.96,-0.407 -0.96,-1.083 0,-0.621 0.332,-1.084 0.957,-1.084 0.499,0 0.732,0.267 0.874,0.544 L 0.375,0.297 C 0.261,0.1 0.184,0 0,0"
             style="fill:#6ec72e;fill-opacity:1;fill-rule:nonzero;stroke:none"
             id="path7565"
             inkscape:connector-curvature="0" />
        </g>
      </g>
    </g>
    <path
       d="m 1470.199,-625.37122 11.5494,0 0,-40.87018 -11.5494,0 0,40.87018 z"
       style="fill:#6ec72e;fill-opacity:1;fill-rule:nonzero;stroke:none"
       id="path7567"
       inkscape:connector-curvature="0" />
    <g
       id="g7569"
       transform="matrix(19.443475,0,0,-19.443475,1507.6238,-635.24259)">
      <path
         d="m 0,0 0,1.594 -0.588,0 0,-2.101 1.519,0 L 0.931,0 0,0 z"
         style="fill:#6ec72e;fill-opacity:1;fill-rule:nonzero;stroke:none"
         id="path7571"
         inkscape:connector-curvature="0" />
    </g>
  </g>
</svg>
